<?xml version="1.0" encoding="utf-8"?>
<!-- Generator: Adobe Illustrator 22.1.0, SVG Export Plug-In . SVG Version: 6.00 Build 0)  -->
<svg version="1.1" id="Layer_1" xmlns="http://www.w3.org/2000/svg" xmlns:xlink="http://www.w3.org/1999/xlink" x="0px" y="0px"
	height="40px"
	 viewBox="0 0 274.9 50" style="enable-background:new 0 0 274.9 50;" xml:space="preserve">
<style type="text/css">
	.st0{fill:#ED1C24;}
	.st1{fill:#414042;}
	.st2{fill:#FFFFFF;}
</style>
<g>
	<path class="st0" d="M251.3,50l-34-50H113.8v50H251.3z"/>
	<path class="st1" d="M64,0v50h153.3l34-50H64z"/>
	<polygon class="st1" points="256.6,50 239.6,25 256.6,0 263.2,0 246.1,25 263.2,50 	"/>
	<polygon class="st1" points="268.4,50 251.4,25 268.4,0 274.9,0 257.9,25 274.9,50 	"/>
	<path class="st0" d="M88.8,0L25,0C11.2,0,0,11.2,0,25v0c0,13.8,11.2,25,25,25h63.8c13.8,0,25-11.2,25-25v0
		C113.8,11.2,102.6,0,88.8,0z"/>
	<path class="st2" d="M88.4,6.9c-10,0-18.1,8.1-18.1,18.1c0,10,8.1,18.1,18.1,18.1c10,0,18.1-8.1,18.1-18.1
		C106.6,15,98.4,6.9,88.4,6.9z M88.4,36.3c-6.3,0-11.3-5.1-11.3-11.3c0-6.3,5.1-11.3,11.3-11.3c6.3,0,11.3,5.1,11.3,11.3
		C99.8,31.3,94.7,36.3,88.4,36.3z"/>
	<path class="st2" d="M25,6.9C15,6.9,6.9,15,6.9,25C6.9,35,15,43.1,25,43.1c10,0,18.1-8.1,18.1-18.1C43.1,15,35,6.9,25,6.9z
		 M25,36.3c-6.3,0-11.3-5.1-11.3-11.3c0-6.3,5.1-11.3,11.3-11.3c6.3,0,11.3,5.1,11.3,11.3C36.3,31.3,31.3,36.3,25,36.3z"/>
	<polygon class="st2" points="70.3,6.9 60.2,6.9 53.3,6.9 43.1,6.9 43.1,13.8 53.3,13.8 53.3,43.1 60.2,43.1 60.2,13.8 70.3,13.8 	
		"/>
	<g>
		<polygon class="st2" points="127.5,6.9 127.5,7.1 143.5,31 143.5,6.9 150.3,6.9 150.3,43.1 143.5,43.1 127.5,19.3 127.5,43.1 
			120.7,43.1 120.7,6.9 		"/>
		<polygon class="st2" points="177.5,13.7 177.5,6.9 161.6,6.9 154.8,6.9 154.8,13.7 154.8,21.6 154.8,28.4 154.8,36.3 154.8,43.1 
			161.6,43.1 177.5,43.1 177.5,36.3 161.6,36.3 161.6,28.4 177.5,28.4 177.5,21.6 161.6,21.6 161.6,13.7 		"/>
		<polygon class="st2" points="236.1,6.9 234.5,6.9 227.7,6.9 227.7,7.1 211.7,31 211.7,6.9 204.9,6.9 188.8,31 188.8,6.9 182,6.9 
			182,43.1 188.8,43.1 204.9,19.3 204.9,43.1 211.7,43.1 227.7,19.3 227.7,19.3 		"/>
	</g>
</g>
</svg>
