<?xml version="1.0" encoding="utf-8"?>
<!-- Generator: Adobe Illustrator 22.1.0, SVG Export Plug-In . SVG Version: 6.00 Build 0)  -->
<svg version="1.1" id="Layer_1" xmlns="http://www.w3.org/2000/svg" xmlns:xlink="http://www.w3.org/1999/xlink" x="0px" y="0px"
	 width="274.9px" height="67.7px"
	 viewBox="0 0 274.9 67.4" style="enable-background:new 0 0 274.9 67.4;" xml:space="preserve">
<style type="text/css">
	.st0{fill:#EC1C24;}
	.st1{fill:#404041;}
	.st2{fill:#FFFFFF;}
	.st3{enable-background:new    ;}
</style>
<g>
	<g>
		<path class="st0" d="M251.3,50l-34-50H113.8v50H251.3z"/>
	</g>
	<g>
		<path class="st1" d="M64,0v50h153.2l34-50H64z"/>
	</g>
	<g>
		<polygon class="st1" points="256.6,50 239.6,25 256.6,0 263.1,0 246.1,25 263.1,50 		"/>
	</g>
	<g>
		<polygon class="st1" points="268.4,50 251.3,25 268.4,0 274.9,0 257.9,25 274.9,50 		"/>
	</g>
	<g>
		<path class="st0" d="M88.8,0H25C11.2,0,0,11.2,0,25l0,0c0,13.8,11.2,25,25,25h63.8c13.8,0,25-11.2,25-25l0,0
			C113.8,11.2,102.6,0,88.8,0z"/>
	</g>
	<g>
		<path class="st2" d="M88.4,6.9c-10,0-18.1,8.1-18.1,18.1s8.1,18.1,18.1,18.1S106.5,35,106.5,25S98.4,6.9,88.4,6.9z M88.4,36.3
			c-6.3,0-11.3-5.1-11.3-11.3c0-6.3,5.1-11.3,11.3-11.3c6.3,0,11.3,5.1,11.3,11.3C99.7,31.3,94.7,36.3,88.4,36.3z"/>
	</g>
	<g>
		<path class="st2" d="M25,6.9C15,6.9,6.9,15,6.9,25S15,43.1,25,43.1S43.1,35,43.1,25S35,6.9,25,6.9z M25,36.3
			c-6.3,0-11.3-5.1-11.3-11.3c0-6.3,5.1-11.3,11.3-11.3c6.3,0,11.3,5.1,11.3,11.3C36.3,31.3,31.3,36.3,25,36.3z"/>
	</g>
	<g>
		<polygon class="st2" points="70.3,6.9 60.1,6.9 53.3,6.9 43.1,6.9 43.1,13.8 53.3,13.8 53.3,43.1 60.1,43.1 60.1,13.8 70.3,13.8 
					"/>
	</g>
	<g>
		<g>
			<g>
				<polygon class="st2" points="220.8,6.9 213.7,6.9 195.7,32.6 195.7,6.9 188.6,6.9 163.3,43.1 170.4,43.1 188.6,17 188.6,42.7 
					188.6,43.1 195.4,43.1 				"/>
				<path class="st1" d="M195.4,43.1h-6.8v-26l-18.2,26h-7.2l0,0l25.3-36.2h7.1v25.6l18-25.6h7.2l0,0L195.4,43.1z M188.6,43.1h6.8
					l25.4-36.1h-7l-18,25.8V6.9h-7.1l-25.3,36.1h7l18.2-26.2V43.1z"/>
			</g>
			<g>
				<polygon class="st2" points="178.4,14 183.3,6.9 165.9,6.9 158.8,6.9 133.4,43.1 133.4,43.1 133.4,43.1 157.9,43.1 162.9,36 
					145.5,36 150.7,28.5 168.2,28.5 173.1,21.5 155.7,21.5 160.9,14 				"/>
				<path class="st1" d="M157.9,43.1h-24.6l0,0l25.4-36.2h24.6l0,0l-4.9,7.1h-17.5l-5.2,7.5h17.4l-4.9,7h-17.5l-5.2,7.4h17.4l0,0
					L157.9,43.1z M133.4,43.1h24.4l5-7h-17.4l0,0l5.2-7.5h17.5l4.9-7h-17.4l0,0l5.2-7.5h17.5l4.9-7.1h-24.4L133.4,43.1z"/>
			</g>
			<g>
				<polygon class="st2" points="145.4,6.9 136.6,19.9 127.5,6.9 120.4,6.9 133.1,25 120.8,43.1 127.9,43.1 136.7,30.1 140.2,25 
					152.5,6.9 				"/>
				<path class="st1" d="M127.9,43.1h-7.2l0,0L133.1,25L120.4,6.9h7.2l0,0l9.1,13l8.8-13h7.2l0,0L140.2,25l-3.5,5.1L127.9,43.1z
					 M120.8,43.1h7l8.8-13l3.5-5.1l12.3-18.1h-7l-8.8,13l0,0l-9.1-13h-7L133.1,25l0,0L120.8,43.1z"/>
			</g>
			<g>
				<polygon class="st2" points="232.9,6.9 225.8,6.9 220.9,14 228,14 				"/>
				<path class="st1" d="M228,14h-7.2l0,0l4.9-7.1h7.2l0,0L228,14z M220.9,14h7l4.9-7.1h-7L220.9,14z"/>
			</g>
			<g>
				<polygon class="st2" points="200.5,43.1 207.6,43.1 225.8,17 218.7,17 				"/>
				<path class="st1" d="M207.6,43.1h-7.2l0,0L218.7,17h7.2l0,0L207.6,43.1z M200.5,43.1h7l18.2-26h-7L200.5,43.1z"/>
			</g>
		</g>
	</g>
	<g class="st3">
		<path class="st1" d="M105.1,67.4h-3.8l-2.9-4h-1.2v4h-3.5V55.1h6c3.2,0,4.8,2,4.8,4.3c0,1.5-0.5,2.8-2.6,3.7l3.2,4.2V67.4z
			 M97.2,57.9v3h2.6c0.9,0,1.3-0.7,1.3-1.4c0-0.8-0.4-1.5-1.4-1.5H97.2z"/>
		<path class="st1" d="M121.6,67.4h-9.9V55.1h9.6V58h-6.2v1.8h5.8v2.8h-5.8v1.9h6.4V67.4z"/>
		<path class="st1" d="M136.7,61.9c-0.1-1.5-0.1-2-0.1-2.5v-4.2h3.5v12.3h-3l-5.2-6.7l0.1,2.7v4h-3.5V55.1h3L136.7,61.9z"/>
		<path class="st1" d="M150.2,58h-3.6v-2.9h10.7V58h-3.6v9.5h-3.5V58z"/>
		<path class="st1" d="M180.3,65.4h-5.5l-0.8,2h-3.7l5.5-12.3h3.5l5.5,12.3h-3.7L180.3,65.4z M177.6,58.6l-1.6,3.9h3.2L177.6,58.6z"
			/>
		<path class="st1" d="M210.3,65.8c-1.4,1.4-3.1,1.9-5,1.9c-4.9,0-6.7-3.1-6.8-6.4c0-3.2,2.1-6.5,6.8-6.5c1.8,0,3.4,0.6,4.8,2
			l-2.2,2.1c-0.9-0.8-1.8-1.1-2.6-1.1c-2.4,0-3.3,1.9-3.3,3.5c0,1.6,0.9,3.4,3.3,3.4c0.8,0,2-0.4,2.9-1.3L210.3,65.8z"/>
		<path class="st1" d="M225.2,65.4h-5.5l-0.8,2h-3.7l5.5-12.3h3.5l5.5,12.3H226L225.2,65.4z M222.5,58.6l-1.6,3.9h3.2L222.5,58.6z"
			/>
		<path class="st1" d="M247.2,67.4h-3.8l-2.9-4h-1.2v4h-3.5V55.1h6c3.2,0,4.8,2,4.8,4.3c0,1.5-0.5,2.8-2.6,3.7l3.2,4.2V67.4z
			 M239.3,57.9v3h2.6c0.9,0,1.3-0.7,1.3-1.4c0-0.8-0.4-1.5-1.4-1.5H239.3z"/>
	</g>
</g>
</svg>
